<svg width="1812" height="365" viewBox="0 0 1812 365" fill="none" xmlns="http://www.w3.org/2000/svg">
<path d="M153.598 0.190221C154.804 0.182774 154.804 0.182774 156.035 0.175176C158.68 0.16065 161.324 0.153766 163.969 0.148229C164.88 0.145402 165.792 0.142574 166.731 0.139661C171.56 0.124702 176.39 0.115454 181.219 0.11112C186.164 0.105661 191.109 0.0816776 196.055 0.0531478C199.894 0.0343532 203.734 0.0293068 207.573 0.0277839C209.394 0.0247912 211.214 0.01688 213.035 0.00359869C240.955 -0.185443 264.435 7.05221 284.941 26.7264C295.571 37.6926 303.051 51.4044 306.254 66.3514C307.414 66.4532 308.574 66.555 309.77 66.66C314.217 67.2223 317.94 68.5683 322.004 70.4139C322.698 70.7262 323.392 71.0386 324.107 71.3604C345.426 81.2477 362.084 98.22 370.254 120.351C373.953 131.826 375.398 143.216 375.457 155.222C375.463 156.144 375.469 157.065 375.474 158.014C375.484 159.956 375.49 161.898 375.494 163.84C375.504 166.75 375.535 169.659 375.566 172.568C375.721 199.501 370.368 223.684 351 243.601C350.094 244.509 349.188 245.416 348.254 246.351C347.523 247.094 346.792 247.836 346.039 248.601C337.346 256.89 324.688 264.518 312.781 266.832C310.227 267.384 308.429 267.892 306.254 269.351C304.865 272.12 304.124 274.85 303.316 277.84C297.239 297.926 281.155 314.168 263.191 324.164C262.587 324.513 261.982 324.862 261.359 325.221C243.224 334.735 223.402 334.107 203.532 333.928C200.481 333.909 197.431 333.924 194.38 333.939C191.405 333.95 188.429 333.94 185.454 333.926C184.051 333.92 182.648 333.921 181.244 333.927C167.516 333.966 156.241 330.876 146.094 321.316C134.79 309.336 132.628 296.441 132.949 280.566C133.507 267.762 138.486 257.92 147.645 249.031C155.025 242.741 163.861 238.219 173.721 238.231C175.052 238.229 175.052 238.229 176.41 238.227C177.379 238.231 178.348 238.234 179.347 238.238C180.388 238.238 181.429 238.238 182.502 238.237C185.873 238.238 189.243 238.246 192.613 238.254C194.694 238.255 196.775 238.256 198.856 238.257C206.572 238.262 214.288 238.276 222.004 238.289C239.247 238.309 256.489 238.33 274.254 238.351C274.254 191.491 274.254 144.631 274.254 96.3514C217.494 96.3514 160.734 96.3514 102.254 96.3514C102.289 112.599 102.324 128.846 102.359 145.586C102.375 155.876 102.389 166.166 102.4 176.457C102.406 181.864 102.412 187.27 102.419 192.677C102.42 193.355 102.42 194.032 102.421 194.73C102.434 205.652 102.458 216.574 102.485 227.495C102.514 238.714 102.53 249.933 102.536 261.152C102.54 267.449 102.549 273.746 102.571 280.043C102.592 285.976 102.598 291.908 102.593 297.841C102.594 300.013 102.6 302.185 102.612 304.357C102.703 322.458 101.54 337.892 88.504 351.726C83.866 356.108 79.2373 359.149 73.254 361.351C72.2125 361.736 72.2125 361.736 71.15 362.129C64.3473 364.43 58.0274 364.858 50.879 364.789C49.7736 364.781 48.6681 364.772 47.5292 364.764C33.8794 364.48 24.0127 360.687 14.0314 351.25C0.802204 337.254 0.102086 321.295 0.108744 303.01C0.105748 301.363 0.102344 299.716 0.0985668 298.069C0.0897679 293.614 0.0873958 289.159 0.0867565 284.704C0.0860433 281.912 0.0838924 279.119 0.0812481 276.327C0.0720056 266.561 0.0679172 256.795 0.0687054 247.029C0.0693046 237.969 0.0587815 228.908 0.0429638 219.848C0.0298203 212.037 0.0245204 204.226 0.0251568 196.415C0.0254099 191.764 0.0226709 187.113 0.0119884 182.463C0.00219309 178.079 0.00230138 173.695 0.00950126 169.311C0.0105333 167.717 0.00827381 166.123 0.00214653 164.53C-0.0277188 156.211 0.249233 148.013 1.13638 139.738C1.21286 139.011 1.28934 138.284 1.36814 137.536C3.44047 119.989 11.7848 103.7 24.254 91.3514C25.0996 90.4645 25.9453 89.5776 26.8165 88.6639C27.6209 87.9007 28.4253 87.1376 29.254 86.3514C29.8122 85.8216 30.3703 85.2917 30.9454 84.7459C41.119 75.4355 52.4967 69.4114 66.047 66.5506C69.4039 65.6883 69.4039 65.6883 70.6017 62.9529C70.9555 61.4795 70.9555 61.4795 71.3165 59.9764C77.5456 38.0436 92.7977 21.4945 112.254 10.3514C124.921 3.45479 139.23 0.211794 153.598 0.190221ZM116.902 51.8968C111.656 57.5761 111.656 57.5762 109.254 64.3514C161.394 64.3514 213.534 64.3514 267.254 64.3514C262.013 51.2496 251.02 42.9765 238.797 36.6756C228.172 32.7044 217.822 31.8974 206.567 31.9529C205.092 31.9509 203.617 31.948 202.142 31.9442C199.073 31.9398 196.004 31.9461 192.935 31.9602C189.038 31.9773 185.143 31.9675 181.246 31.9495C178.207 31.9386 175.169 31.9422 172.13 31.9499C170.695 31.9519 169.26 31.9496 167.824 31.9425C148.328 31.8673 130.2 36.6921 116.902 51.8968ZM51.8087 113.547C41.6654 123.973 35.0173 138.171 34.9933 152.783C34.9895 153.485 34.9857 154.188 34.9817 154.912C34.9715 157.244 34.9754 159.575 34.9794 161.906C34.975 163.587 34.9698 165.268 34.9639 166.949C34.9505 171.499 34.9499 176.048 34.9524 180.598C34.9535 184.403 34.9486 188.207 34.9438 192.012C34.9327 200.99 34.9323 209.968 34.9383 218.947C34.9444 228.196 34.9321 237.444 34.9108 246.693C34.8931 254.648 34.8871 262.602 34.8904 270.556C34.8922 275.301 34.8896 280.046 34.8757 284.791C34.8631 289.253 34.8651 293.716 34.8781 298.179C34.8805 299.812 34.8778 301.445 34.8695 303.078C34.4714 316.823 34.4714 316.823 40.379 328.789C45.5186 331.582 50.1192 332.605 55.9415 331.914C60.889 329.58 63.8357 326.117 66.3178 321.277C67.5674 317.372 67.5233 313.644 67.4945 309.588C67.4971 308.264 67.4971 308.264 67.4997 306.914C67.503 303.959 67.492 301.003 67.4811 298.047C67.4805 295.928 67.4808 293.81 67.4819 291.691C67.4825 285.937 67.4707 280.183 67.4568 274.43C67.4443 268.417 67.4431 262.405 67.4407 256.392C67.4345 245.006 67.4181 233.62 67.398 222.234C67.3757 209.272 67.3647 196.309 67.3547 183.347C67.3337 156.682 67.2986 130.017 67.254 103.351C61.7551 103.351 55.7059 110.048 51.8087 113.547ZM308.254 103.351C308.254 145.591 308.254 187.831 308.254 231.351C323.053 223.952 332.541 212.886 338.254 197.351C340.046 191.25 340.574 185.745 340.59 179.402C340.597 178.468 340.603 177.533 340.61 176.57C340.62 174.601 340.625 172.632 340.625 170.663C340.629 167.689 340.665 164.717 340.703 161.744C340.815 143.016 336.983 127.767 323.77 113.722C316.866 106.737 316.866 106.737 308.254 103.351ZM166.317 276.914C164.451 282.95 164.412 288.778 166.379 294.789C169.278 298.751 172.634 300.812 177.254 302.351C180.162 302.473 183.045 302.54 185.953 302.554C186.821 302.56 187.689 302.566 188.583 302.572C190.428 302.581 192.273 302.588 194.119 302.592C196.886 302.601 199.653 302.632 202.42 302.664C222.687 302.787 240.824 300.357 256.063 285.621C262.79 278.743 262.79 278.743 267.254 270.351C255.38 270.259 243.505 270.188 231.631 270.144C226.117 270.123 220.603 270.095 215.089 270.05C209.765 270.006 204.442 269.982 199.119 269.972C197.09 269.964 195.061 269.95 193.032 269.928C190.186 269.899 187.34 269.895 184.494 269.897C183.241 269.876 183.241 269.876 181.963 269.854C175.367 269.9 170.469 271.421 166.317 276.914Z" fill="#25B8F0"/>
<path d="M153.598 0.190221C154.804 0.182774 154.804 0.182774 156.035 0.175176C158.68 0.16065 161.324 0.153766 163.969 0.148229C164.88 0.145402 165.792 0.142574 166.731 0.139661C171.56 0.124702 176.39 0.115454 181.219 0.11112C186.164 0.105661 191.109 0.0816776 196.055 0.0531478C199.894 0.0343532 203.734 0.0293068 207.573 0.0277839C209.394 0.0247912 211.214 0.01688 213.035 0.00359869C240.955 -0.185443 264.435 7.05221 284.941 26.7264C295.571 37.6926 303.051 51.4044 306.254 66.3514C307.414 66.4532 308.574 66.555 309.77 66.66C314.217 67.2223 317.94 68.5683 322.004 70.4139C322.698 70.7262 323.392 71.0386 324.107 71.3604C345.426 81.2477 362.084 98.22 370.254 120.351C373.953 131.826 375.398 143.216 375.457 155.222C375.463 156.144 375.469 157.065 375.474 158.014C375.484 159.956 375.49 161.898 375.494 163.84C375.504 166.75 375.535 169.659 375.566 172.568C375.721 199.501 370.368 223.684 351 243.601C350.094 244.509 349.188 245.416 348.254 246.351C347.523 247.094 346.792 247.836 346.039 248.601C337.346 256.89 324.688 264.518 312.781 266.832C310.227 267.384 308.429 267.892 306.254 269.351C304.865 272.12 304.124 274.85 303.316 277.84C297.239 297.926 281.155 314.168 263.191 324.164C262.587 324.513 261.982 324.862 261.359 325.221C243.224 334.735 223.402 334.107 203.532 333.928C200.481 333.909 197.431 333.924 194.38 333.939C191.405 333.95 188.429 333.94 185.454 333.926C184.051 333.92 182.648 333.921 181.244 333.927C167.516 333.966 156.241 330.876 146.094 321.316C134.79 309.336 132.628 296.441 132.949 280.566C133.507 267.762 138.486 257.92 147.645 249.031C155.025 242.741 163.861 238.219 173.721 238.231C175.052 238.229 175.052 238.229 176.41 238.227C177.379 238.231 178.348 238.234 179.347 238.238C180.388 238.238 181.429 238.238 182.502 238.237C185.873 238.238 189.243 238.246 192.613 238.254C194.694 238.255 196.775 238.256 198.856 238.257C206.572 238.262 214.288 238.276 222.004 238.289C239.247 238.309 256.489 238.33 274.254 238.351C274.254 191.491 274.254 144.631 274.254 96.3514C217.494 96.3514 160.734 96.3514 102.254 96.3514C102.289 112.599 102.324 128.846 102.359 145.586C102.375 155.876 102.389 166.166 102.4 176.457C102.406 181.864 102.412 187.27 102.419 192.677C102.42 193.355 102.42 194.032 102.421 194.73C102.434 205.652 102.458 216.574 102.485 227.495C102.514 238.714 102.53 249.933 102.536 261.152C102.54 267.449 102.549 273.746 102.571 280.043C102.592 285.976 102.598 291.908 102.593 297.841C102.594 300.013 102.6 302.185 102.612 304.357C102.703 322.458 101.54 337.892 88.504 351.726C83.866 356.108 79.2373 359.149 73.254 361.351C72.2125 361.736 72.2125 361.736 71.15 362.129C64.3473 364.43 58.0274 364.858 50.879 364.789C49.7736 364.781 48.6681 364.772 47.5292 364.764C33.8794 364.48 24.0127 360.687 14.0314 351.25C0.802204 337.254 0.102086 321.295 0.108744 303.01C0.105748 301.363 0.102344 299.716 0.0985668 298.069C0.0897679 293.614 0.0873958 289.159 0.0867565 284.704C0.0860433 281.912 0.0838924 279.119 0.0812481 276.327C0.0720056 266.561 0.0679172 256.795 0.0687054 247.029C0.0693046 237.969 0.0587815 228.908 0.0429638 219.848C0.0298203 212.037 0.0245204 204.226 0.0251568 196.415C0.0254099 191.764 0.0226709 187.113 0.0119884 182.463C0.00219309 178.079 0.00230138 173.695 0.00950126 169.311C0.0105333 167.717 0.00827381 166.123 0.00214653 164.53C-0.0277188 156.211 0.249233 148.013 1.13638 139.738C1.21286 139.011 1.28934 138.284 1.36814 137.536C3.44047 119.989 11.7848 103.7 24.254 91.3514C25.0996 90.4645 25.9453 89.5776 26.8165 88.6639C27.6209 87.9007 28.4253 87.1376 29.254 86.3514C29.8122 85.8216 30.3703 85.2917 30.9454 84.7459C41.119 75.4355 52.4967 69.4114 66.047 66.5506C69.4039 65.6883 69.4039 65.6883 70.6017 62.9529C70.9555 61.4795 70.9555 61.4795 71.3165 59.9764C77.5456 38.0436 92.7977 21.4945 112.254 10.3514C124.921 3.45479 139.23 0.211794 153.598 0.190221ZM116.902 51.8968C111.656 57.5761 111.656 57.5762 109.254 64.3514C161.394 64.3514 213.534 64.3514 267.254 64.3514C262.013 51.2496 251.02 42.9765 238.797 36.6756C228.172 32.7044 217.822 31.8974 206.567 31.9529C205.092 31.9509 203.617 31.948 202.142 31.9442C199.073 31.9398 196.004 31.9461 192.935 31.9602C189.038 31.9773 185.143 31.9675 181.246 31.9495C178.207 31.9386 175.169 31.9422 172.13 31.9499C170.695 31.9519 169.26 31.9496 167.824 31.9425C148.328 31.8673 130.2 36.6921 116.902 51.8968ZM51.8087 113.547C41.6654 123.973 35.0173 138.171 34.9933 152.783C34.9895 153.485 34.9857 154.188 34.9817 154.912C34.9715 157.244 34.9754 159.575 34.9794 161.906C34.975 163.587 34.9698 165.268 34.9639 166.949C34.9505 171.499 34.9499 176.048 34.9524 180.598C34.9535 184.403 34.9486 188.207 34.9438 192.012C34.9327 200.99 34.9323 209.968 34.9383 218.947C34.9444 228.196 34.9321 237.444 34.9108 246.693C34.8931 254.648 34.8871 262.602 34.8904 270.556C34.8922 275.301 34.8896 280.046 34.8757 284.791C34.8631 289.253 34.8651 293.716 34.8781 298.179C34.8805 299.812 34.8778 301.445 34.8695 303.078C34.4714 316.823 34.4714 316.823 40.379 328.789C45.5186 331.582 50.1192 332.605 55.9415 331.914C60.889 329.58 63.8357 326.117 66.3178 321.277C67.5674 317.372 67.5233 313.644 67.4945 309.588C67.4971 308.264 67.4971 308.264 67.4997 306.914C67.503 303.959 67.492 301.003 67.4811 298.047C67.4805 295.928 67.4808 293.81 67.4819 291.691C67.4825 285.937 67.4707 280.183 67.4568 274.43C67.4443 268.417 67.4431 262.405 67.4407 256.392C67.4345 245.006 67.4181 233.62 67.398 222.234C67.3757 209.272 67.3647 196.309 67.3547 183.347C67.3337 156.682 67.2986 130.017 67.254 103.351C61.7551 103.351 55.7059 110.048 51.8087 113.547ZM308.254 103.351C308.254 145.591 308.254 187.831 308.254 231.351C323.053 223.952 332.541 212.886 338.254 197.351C340.046 191.25 340.574 185.745 340.59 179.402C340.597 178.468 340.603 177.533 340.61 176.57C340.62 174.601 340.625 172.632 340.625 170.663C340.629 167.689 340.665 164.717 340.703 161.744C340.815 143.016 336.983 127.767 323.77 113.722C316.866 106.737 316.866 106.737 308.254 103.351ZM166.317 276.914C164.451 282.95 164.412 288.778 166.379 294.789C169.278 298.751 172.634 300.812 177.254 302.351C180.162 302.473 183.045 302.54 185.953 302.554C186.821 302.56 187.689 302.566 188.583 302.572C190.428 302.581 192.273 302.588 194.119 302.592C196.886 302.601 199.653 302.632 202.42 302.664C222.687 302.787 240.824 300.357 256.063 285.621C262.79 278.743 262.79 278.743 267.254 270.351C255.38 270.259 243.505 270.188 231.631 270.144C226.117 270.123 220.603 270.095 215.089 270.05C209.765 270.006 204.442 269.982 199.119 269.972C197.09 269.964 195.061 269.95 193.032 269.928C190.186 269.899 187.34 269.895 184.494 269.897C183.241 269.876 183.241 269.876 181.963 269.854C175.367 269.9 170.469 271.421 166.317 276.914Z" fill="#25B8F0"/>
<path d="M274.254 96.3513C302.143 96.3513 327.318 98.9097 349.254 117.351C350.062 117.961 350.87 118.571 351.703 119.199C365.663 130.978 373.161 149.582 375.254 167.351C377.172 191.963 373.099 218.069 356.68 237.48C353.977 240.549 351.143 243.458 348.254 246.351C347.523 247.094 346.792 247.836 346.039 248.601C337.346 256.889 324.688 264.518 312.781 266.832C310.227 267.384 308.429 267.892 306.254 269.351C304.865 272.12 304.124 274.85 303.316 277.84C297.239 297.926 281.155 314.168 263.191 324.164C262.587 324.513 261.982 324.862 261.359 325.221C243.224 334.735 223.401 334.107 203.532 333.928C200.481 333.909 197.431 333.924 194.38 333.939C191.404 333.95 188.429 333.94 185.454 333.926C184.051 333.92 182.647 333.921 181.244 333.927C167.516 333.966 156.241 330.876 146.094 321.316C134.789 309.336 132.627 296.441 132.949 280.566C133.506 267.762 138.486 257.92 147.644 249.031C155.025 242.741 163.861 238.219 173.721 238.231C175.052 238.229 175.052 238.229 176.409 238.227C177.379 238.23 178.348 238.234 179.347 238.238C180.388 238.238 181.429 238.238 182.502 238.237C185.872 238.238 189.243 238.246 192.613 238.254C194.694 238.255 196.775 238.256 198.856 238.257C206.572 238.262 214.288 238.276 222.004 238.289C239.246 238.309 256.489 238.33 274.254 238.351C274.254 191.491 274.254 144.631 274.254 96.3513ZM308.254 103.351C308.254 145.591 308.254 187.831 308.254 231.351C323.053 223.952 332.541 212.885 338.254 197.351C340.046 191.25 340.574 185.745 340.59 179.402C340.596 178.468 340.603 177.533 340.61 176.57C340.62 174.601 340.625 172.632 340.624 170.663C340.629 167.689 340.665 164.717 340.703 161.744C340.814 143.016 336.982 127.767 323.769 113.722C316.866 106.737 316.866 106.737 308.254 103.351ZM166.316 276.914C164.451 282.95 164.411 288.778 166.379 294.789C169.278 298.751 172.634 300.811 177.254 302.351C180.162 302.473 183.044 302.54 185.953 302.554C186.821 302.56 187.689 302.566 188.583 302.572C190.428 302.581 192.273 302.588 194.118 302.592C196.886 302.601 199.652 302.632 202.42 302.664C222.687 302.787 240.824 300.357 256.062 285.621C262.79 278.743 262.79 278.743 267.254 270.351C255.379 270.259 243.505 270.188 231.631 270.144C226.116 270.123 220.602 270.095 215.088 270.05C209.765 270.006 204.442 269.982 199.119 269.972C197.09 269.964 195.061 269.95 193.032 269.928C190.186 269.899 187.34 269.895 184.494 269.897C183.241 269.876 183.241 269.876 181.963 269.854C175.367 269.9 170.469 271.421 166.316 276.914Z" fill="#0CA3DC"/>
<path d="M1721.25 67.3513C1723.52 69.5818 1723.52 69.5818 1725.5 72.5388C1726.17 73.5018 1726.83 74.4647 1727.52 75.4568C1731.29 81.7458 1732.21 87.0815 1731.25 94.3513C1728.64 101.862 1721.2 107.877 1714.25 111.351C1714.91 111.355 1715.57 111.359 1716.25 111.362C1723.18 111.404 1730.11 111.474 1737.04 111.559C1739.62 111.587 1742.2 111.608 1744.77 111.622C1748.5 111.644 1752.23 111.691 1755.95 111.742C1757.09 111.743 1758.22 111.744 1759.4 111.746C1774.05 112.008 1787.67 117.005 1798.25 127.351C1806.53 137.396 1811.33 148.474 1811.43 161.506C1811.44 162.207 1811.44 162.909 1811.45 163.632C1811.47 165.945 1811.48 168.257 1811.49 170.57C1811.5 171.366 1811.5 172.161 1811.5 172.981C1811.53 177.198 1811.54 181.414 1811.55 185.631C1811.56 189.953 1811.59 194.275 1811.63 198.597C1811.66 201.949 1811.67 205.3 1811.67 208.651C1811.68 210.243 1811.69 211.834 1811.71 213.425C1811.89 230.22 1808.22 244.688 1796.54 257.215C1781.99 270.8 1766.09 270.959 1747.32 270.883C1744.99 270.885 1742.66 270.889 1740.32 270.894C1735.46 270.9 1730.59 270.892 1725.72 270.873C1719.51 270.85 1713.29 270.863 1707.08 270.887C1702.27 270.902 1697.46 270.897 1692.66 270.887C1690.37 270.884 1688.08 270.887 1685.79 270.897C1669.11 270.95 1656.66 270.283 1643.25 259.351C1642.3 258.601 1642.3 258.601 1641.32 257.836C1632.54 250.104 1627.79 237.546 1627.04 226.113C1626.66 212.592 1629.57 200.472 1638.29 189.875C1647.05 180.623 1657.77 174.409 1670.71 173.991C1672.7 173.982 1674.68 173.99 1676.67 174.011C1677.76 174.01 1678.86 174.01 1679.99 174.009C1683.57 174.011 1687.15 174.035 1690.73 174.058C1693.23 174.064 1695.72 174.068 1698.22 174.071C1704.77 174.083 1711.31 174.112 1717.86 174.145C1724.55 174.178 1731.24 174.19 1737.93 174.205C1751.04 174.237 1764.15 174.288 1777.25 174.351C1777.12 171.937 1776.98 169.523 1776.83 167.109C1776.79 166.428 1776.76 165.747 1776.72 165.046C1776.31 158.426 1775.2 154.659 1770.88 149.539C1765.35 144.931 1760.26 145.065 1753.36 145.096C1752.37 145.092 1751.37 145.089 1750.35 145.085C1748.2 145.078 1746.05 145.076 1743.89 145.077C1740.49 145.078 1737.08 145.065 1733.67 145.048C1723.97 145.002 1714.28 144.977 1704.59 144.97C1698.66 144.965 1692.72 144.941 1686.79 144.905C1684.54 144.895 1682.28 144.893 1680.02 144.898C1676.86 144.905 1673.7 144.888 1670.54 144.865C1669.61 144.874 1668.68 144.882 1667.73 144.89C1661.82 144.815 1657.14 143.824 1652.25 140.351C1647.61 134.52 1646.59 129.603 1647.25 122.351C1649.85 114.138 1655.72 109.787 1662.38 104.851C1663.07 104.335 1663.76 103.819 1664.47 103.287C1670.59 98.7621 1676.86 94.4823 1683.16 90.2241C1688.51 86.5925 1693.73 82.8213 1698.88 78.9138C1708.42 71.7038 1708.42 71.7038 1711.38 69.6013C1712 69.1527 1712.62 68.7041 1713.26 68.242C1716.17 66.9417 1718.11 66.8675 1721.25 67.3513ZM1665.32 211.226C1661.76 216.608 1660.86 219.852 1661.78 226.207C1662.94 231.473 1665.88 234.402 1670.25 237.351C1675.03 239.325 1679.42 239.643 1684.52 239.626C1685.73 239.634 1685.73 239.634 1686.97 239.641C1689.62 239.655 1692.28 239.654 1694.93 239.652C1696.79 239.656 1698.64 239.66 1700.5 239.665C1704.39 239.673 1708.27 239.672 1712.16 239.667C1717.12 239.661 1722.09 239.678 1727.05 239.701C1730.88 239.716 1734.71 239.717 1738.55 239.714C1740.38 239.714 1742.21 239.72 1744.03 239.73C1746.6 239.742 1749.16 239.735 1751.73 239.724C1752.85 239.735 1752.85 239.735 1753.99 239.747C1760.72 239.68 1765.97 237.861 1771.57 234.164C1776.58 228.922 1777.6 223.25 1777.52 216.25C1777.49 215.458 1777.47 214.667 1777.44 213.851C1777.43 213.029 1777.41 212.206 1777.4 211.359C1777.37 209.356 1777.31 207.354 1777.25 205.351C1764.37 205.282 1751.49 205.228 1738.61 205.196C1732.62 205.18 1726.64 205.159 1720.66 205.125C1714.88 205.092 1709.1 205.074 1703.33 205.067C1701.13 205.061 1698.93 205.05 1696.72 205.034C1693.63 205.012 1690.55 205.009 1687.46 205.011C1686.55 205 1685.65 204.989 1684.72 204.978C1677.73 205.012 1670.18 205.693 1665.32 211.226Z" fill="#3F3F3F"/>
<path d="M1025.08 112.084C1026.1 112.075 1027.11 112.067 1028.16 112.058C1029.85 112.059 1029.85 112.059 1031.57 112.061C1033.33 112.051 1033.33 112.051 1035.14 112.04C1038.38 112.025 1041.62 112.018 1044.87 112.017C1046.9 112.015 1048.93 112.011 1050.96 112.006C1058.05 111.987 1065.15 111.979 1072.24 111.981C1078.83 111.982 1085.42 111.961 1092.01 111.929C1097.68 111.903 1103.35 111.892 1109.02 111.894C1112.4 111.894 1115.78 111.889 1119.16 111.867C1122.95 111.848 1126.73 111.853 1130.52 111.865C1132.17 111.849 1132.17 111.849 1133.85 111.831C1148.41 111.948 1160.77 117.049 1171.44 126.851C1180.56 136.354 1185.46 148.701 1185.54 161.846C1185.55 162.548 1185.56 163.25 1185.56 163.974C1185.58 166.27 1185.59 168.566 1185.59 170.863C1185.6 172.48 1185.6 174.096 1185.61 175.713C1185.62 179.094 1185.63 182.475 1185.62 185.857C1185.62 190.156 1185.65 194.454 1185.69 198.753C1185.71 202.091 1185.71 205.43 1185.71 208.768C1185.71 210.351 1185.72 211.934 1185.74 213.517C1185.89 230.268 1182.18 244.724 1170.54 257.215C1155.99 270.8 1140.09 270.959 1121.32 270.883C1118.99 270.885 1116.65 270.889 1114.32 270.894C1109.46 270.9 1104.59 270.892 1099.72 270.873C1093.51 270.85 1087.29 270.863 1081.08 270.887C1076.27 270.902 1071.46 270.897 1066.66 270.887C1064.37 270.884 1062.08 270.887 1059.79 270.896C1041.52 270.955 1028.22 269.482 1014.13 256.851C1004.62 246.959 1000.86 233.937 1000.88 220.56C1001.24 207.806 1006.31 196.373 1015 187.101C1025.35 177.368 1036.69 173.862 1050.67 174.011C1051.76 174.01 1052.86 174.01 1053.99 174.009C1057.57 174.011 1061.15 174.035 1064.73 174.058C1067.23 174.064 1069.72 174.068 1072.22 174.071C1078.77 174.083 1085.31 174.112 1091.86 174.145C1098.55 174.178 1105.24 174.19 1111.93 174.205C1125.04 174.237 1138.15 174.288 1151.25 174.351C1151.12 171.937 1150.98 169.523 1150.83 167.109C1150.79 166.428 1150.76 165.747 1150.72 165.046C1150.31 158.426 1149.2 154.659 1144.88 149.539C1139.35 144.935 1134.26 145.061 1127.36 145.08C1126.37 145.075 1125.37 145.07 1124.35 145.064C1122.2 145.054 1120.05 145.048 1117.89 145.046C1114.49 145.043 1111.08 145.026 1107.67 145.006C1097.97 144.95 1088.28 144.92 1078.59 144.895C1072.66 144.879 1066.72 144.849 1060.79 144.81C1058.54 144.799 1056.28 144.793 1054.02 144.793C1050.86 144.792 1047.7 144.774 1044.54 144.752C1043.61 144.757 1042.68 144.761 1041.73 144.766C1035.1 144.692 1029.21 143.865 1023.98 139.414C1023.43 138.733 1022.88 138.053 1022.32 137.351C1021.47 136.33 1021.47 136.33 1020.6 135.289C1017.77 131.223 1018.07 127.041 1018.07 122.289C1018.05 121.556 1018.04 120.823 1018.03 120.068C1018.02 118.161 1018.13 116.254 1018.25 114.351C1020.77 111.834 1021.59 112.097 1025.08 112.084ZM1039.32 211.226C1035.69 216.722 1034.74 220.3 1035.59 226.847C1036.69 230.99 1038.78 233.867 1042.25 236.351C1047.98 238.847 1052.54 239.79 1058.75 239.74C1059.55 239.745 1060.36 239.75 1061.19 239.755C1063.84 239.769 1066.48 239.76 1069.13 239.75C1070.98 239.752 1072.83 239.755 1074.69 239.758C1078.56 239.763 1082.43 239.756 1086.31 239.742C1091.26 239.725 1096.21 239.735 1101.15 239.753C1104.98 239.764 1108.8 239.761 1112.62 239.753C1114.45 239.751 1116.27 239.753 1118.1 239.76C1120.65 239.768 1123.21 239.756 1125.76 239.74C1126.51 239.746 1127.25 239.752 1128.02 239.758C1135.39 239.67 1141.85 237.599 1147.25 232.351C1150.32 227.975 1151.39 224.317 1151.35 219.023C1151.35 218.224 1151.34 217.425 1151.34 216.601C1151.33 215.776 1151.32 214.951 1151.32 214.101C1151.31 213.261 1151.31 212.42 1151.3 211.554C1151.29 209.487 1151.27 207.419 1151.25 205.351C1138.37 205.282 1125.49 205.228 1112.6 205.196C1106.62 205.18 1100.64 205.159 1094.66 205.125C1088.88 205.092 1083.1 205.074 1077.33 205.067C1075.13 205.061 1072.93 205.05 1070.72 205.034C1067.63 205.012 1064.55 205.009 1061.46 205.011C1060.55 205 1059.65 204.989 1058.72 204.978C1051.73 205.012 1044.18 205.693 1039.32 211.226Z" fill="#3F3F3F"/>
<path d="M677.197 111.964C678.727 111.949 678.727 111.949 680.288 111.934C681.407 111.938 682.526 111.943 683.679 111.947C684.858 111.94 686.038 111.934 687.253 111.926C690.491 111.911 693.729 111.91 696.967 111.915C699.678 111.919 702.388 111.912 705.098 111.906C711.505 111.892 717.911 111.894 724.317 111.905C730.899 111.917 737.48 111.903 744.062 111.876C749.729 111.854 755.395 111.847 761.062 111.853C764.438 111.856 767.815 111.854 771.192 111.837C774.973 111.822 778.753 111.833 782.535 111.85C783.633 111.84 784.732 111.83 785.864 111.82C800.114 111.954 812.465 116.937 823.004 126.539C834.963 139.36 836.726 153.541 836.687 170.222C836.692 171.953 836.697 173.684 836.703 175.414C836.712 179.027 836.71 182.641 836.7 186.254C836.688 190.858 836.709 195.461 836.738 200.065C836.756 203.635 836.756 207.205 836.75 210.775C836.75 212.471 836.756 214.167 836.768 215.863C836.87 231.92 833.345 244.778 822.379 256.976C814.918 264.144 803.272 270.44 792.785 270.498C791.895 270.506 791.005 270.513 790.088 270.52C789.119 270.523 788.15 270.526 787.152 270.528C786.125 270.535 785.099 270.541 784.041 270.548C780.642 270.568 777.243 270.58 773.844 270.59C772.681 270.594 771.517 270.598 770.319 270.602C764.16 270.623 758 270.637 751.841 270.646C745.495 270.658 739.149 270.692 732.803 270.732C727.911 270.758 723.018 270.766 718.125 270.77C715.787 270.775 713.449 270.786 711.111 270.805C707.827 270.829 704.545 270.828 701.261 270.821C700.307 270.834 699.352 270.847 698.368 270.86C686.667 270.771 675.555 265.969 666.84 258.199C654.961 245.943 652.755 233.063 652.98 216.797C653.191 210.662 654.255 205.738 657.254 200.351C657.763 199.412 658.272 198.472 658.797 197.504C665.494 186.118 675.439 178.642 688.156 174.772C690.485 174.305 692.611 174.228 694.987 174.231C695.935 174.23 696.883 174.228 697.859 174.227C699.408 174.232 699.408 174.232 700.989 174.238C702.082 174.238 703.175 174.238 704.301 174.237C707.916 174.238 711.53 174.246 715.144 174.254C717.65 174.256 720.155 174.257 722.66 174.258C728.582 174.261 734.503 174.269 740.425 174.279C747.829 174.292 755.233 174.297 762.637 174.302C775.842 174.313 789.048 174.33 802.254 174.351C802.143 171.617 802.019 168.885 801.887 166.152C801.857 165.382 801.827 164.611 801.796 163.817C801.542 158.839 800.883 155.085 797.996 150.894C791.977 145.564 787.005 144.77 779.223 144.853C778.24 144.848 777.257 144.842 776.244 144.836C774.119 144.827 771.993 144.827 769.868 144.835C766.5 144.848 763.134 144.836 759.766 144.819C753.829 144.792 747.893 144.787 741.956 144.788C732.458 144.79 722.961 144.776 713.463 144.732C710.152 144.723 706.842 144.731 703.532 144.741C701.493 144.735 699.453 144.728 697.414 144.72C696.043 144.732 696.043 144.732 694.644 144.744C686.824 144.682 679.979 143.076 674.254 137.351C670.512 131.941 669.11 127.298 669.004 120.789C668.965 119.364 668.965 119.364 668.926 117.91C669.254 115.351 669.254 115.351 670.465 113.716C672.825 111.916 674.244 111.972 677.197 111.964ZM690.254 211.351C686.764 216.405 686.415 221.402 687.254 227.351C689.043 232.68 692.365 235.703 697.254 238.351C701.182 239.735 705.272 239.506 709.384 239.512C710.609 239.52 710.609 239.52 711.859 239.527C714.558 239.542 717.257 239.549 719.957 239.554C721.838 239.56 723.719 239.566 725.599 239.572C729.544 239.582 733.488 239.588 737.432 239.592C742.473 239.597 747.515 239.621 752.556 239.65C756.442 239.668 760.329 239.673 764.215 239.675C766.073 239.678 767.931 239.686 769.789 239.699C772.395 239.716 775 239.714 777.606 239.708C778.746 239.722 778.746 239.722 779.909 239.736C786.082 239.688 791.698 238.526 796.531 234.414C797.353 233.393 797.353 233.393 798.191 232.351C798.757 231.671 799.323 230.99 799.906 230.289C802.124 227.1 802.375 224.453 802.351 220.683C802.348 219.791 802.345 218.898 802.342 217.978C802.333 217.05 802.325 216.121 802.316 215.164C802.312 214.223 802.307 213.283 802.303 212.314C802.291 209.993 802.274 207.672 802.254 205.351C789.336 205.305 776.419 205.269 763.501 205.248C757.503 205.237 751.505 205.223 745.506 205.2C739.716 205.179 733.926 205.167 728.136 205.162C725.929 205.158 723.721 205.151 721.513 205.14C718.418 205.125 715.323 205.123 712.228 205.124C711.318 205.117 710.408 205.11 709.471 205.102C702.025 205.127 695.771 205.834 690.254 211.351Z" fill="#3F3F3F"/>
<path d="M493.162 112.174C494.156 112.168 495.15 112.161 496.175 112.154C499.461 112.135 502.748 112.123 506.035 112.113C507.161 112.109 508.288 112.105 509.449 112.101C515.416 112.08 521.383 112.066 527.35 112.056C533.489 112.045 539.627 112.011 545.765 111.971C550.506 111.945 555.247 111.936 559.988 111.933C562.249 111.928 564.51 111.916 566.772 111.898C585.403 111.754 600.811 113.189 615.004 126.601C624.555 136.659 629.338 148.528 629.415 162.338C629.42 163.022 629.425 163.705 629.43 164.41C629.444 166.662 629.451 168.915 629.457 171.168C629.461 172.33 629.461 172.33 629.465 173.516C629.48 177.621 629.49 181.726 629.494 185.831C629.499 190.041 629.523 194.252 629.552 198.462C629.571 201.725 629.576 204.987 629.577 208.25C629.58 209.801 629.588 211.351 629.601 212.901C629.733 229.46 626.884 244.005 615.226 256.508C606.875 264.313 596.117 270.484 584.445 270.472C583.48 270.473 582.515 270.474 581.521 270.476C579.944 270.47 579.944 270.47 578.335 270.465C577.222 270.465 576.11 270.465 574.964 270.465C571.284 270.465 567.605 270.457 563.926 270.449C561.375 270.447 558.825 270.446 556.275 270.445C550.247 270.441 544.22 270.433 538.192 270.423C531.329 270.412 524.465 270.407 517.602 270.402C503.486 270.391 489.37 270.374 475.254 270.351C475.275 270.986 475.296 271.621 475.317 272.276C475.401 275.176 475.452 278.075 475.504 280.976C475.554 282.475 475.554 282.475 475.605 284.004C475.685 290.007 475.385 293.644 471.254 298.351C464.263 305.187 457.612 305.57 448.242 305.812C444.507 305.236 443.569 304.289 441.254 301.351C440.753 298.628 440.753 298.628 440.752 295.446C440.743 294.238 440.733 293.03 440.723 291.785C440.732 290.449 440.742 289.113 440.752 287.777C440.748 286.367 440.743 284.958 440.736 283.548C440.722 279.719 440.733 275.89 440.749 272.061C440.763 268.046 440.757 264.03 440.753 260.014C440.75 253.262 440.764 246.51 440.787 239.758C440.814 231.976 440.815 224.194 440.804 216.412C440.793 208.908 440.799 201.404 440.813 193.9C440.819 190.717 440.819 187.534 440.814 184.351C440.809 180.589 440.82 176.826 440.841 173.064C440.849 171.043 440.843 169.022 440.836 167.002C440.963 151.249 444.847 138.228 455.801 126.676C466.763 116.289 478.329 112.217 493.162 112.174ZM480.004 150.601C479.284 151.413 479.284 151.413 478.551 152.242C475.31 157.513 474.965 163.272 475.027 169.306C475.026 170.068 475.026 170.83 475.026 171.615C475.027 174.109 475.043 176.603 475.058 179.097C475.062 180.836 475.065 182.575 475.067 184.314C475.075 188.872 475.094 193.431 475.116 197.99C475.137 202.649 475.146 207.308 475.156 211.967C475.177 221.095 475.212 230.223 475.254 239.351C488.545 239.421 501.836 239.474 515.128 239.507C521.3 239.522 527.472 239.544 533.644 239.578C539.603 239.61 545.561 239.628 551.52 239.636C553.791 239.641 556.062 239.652 558.333 239.669C561.519 239.69 564.704 239.693 567.89 239.692C569.292 239.708 569.292 239.708 570.722 239.725C577.711 239.692 582.915 238.324 589.004 234.726C595.982 227.36 595.833 218.629 595.75 208.972C595.75 207.592 595.751 206.212 595.754 204.831C595.756 201.952 595.743 199.074 595.72 196.195C595.692 192.525 595.695 188.855 595.707 185.185C595.714 182.339 595.706 179.493 595.694 176.647C595.687 174.642 595.692 172.637 595.696 170.632C595.617 162.955 595.508 156.177 590.316 150.074C589.636 149.526 588.955 148.978 588.254 148.414C587.573 147.848 586.892 147.282 586.191 146.699C581.958 143.754 577.504 144.197 572.563 144.19C571.675 144.185 570.787 144.18 569.872 144.175C566.93 144.161 563.988 144.154 561.047 144.148C559.003 144.142 556.959 144.137 554.915 144.131C550.627 144.12 546.338 144.115 542.05 144.111C536.559 144.106 531.068 144.082 525.577 144.053C521.354 144.034 517.13 144.029 512.907 144.028C510.883 144.025 508.859 144.017 506.834 144.004C504 143.986 501.167 143.988 498.333 143.995C497.499 143.986 496.665 143.976 495.805 143.967C489.345 144.013 484.334 145.51 480.004 150.601Z" fill="#3F3F3F"/>
<path d="M1472.5 112.061C1473.99 112.051 1473.99 112.051 1475.52 112.04C1478.79 112.021 1482.06 112.018 1485.33 112.015C1487.62 112.009 1489.91 112.002 1492.2 111.995C1496.99 111.983 1501.78 111.979 1506.58 111.981C1512.69 111.981 1518.81 111.954 1524.92 111.919C1529.65 111.897 1534.38 111.893 1539.11 111.894C1541.36 111.892 1543.61 111.883 1545.86 111.867C1562.25 111.765 1575.42 112.628 1589.25 122.351C1589.89 122.791 1590.53 123.23 1591.18 123.683C1600.1 130.549 1606.05 142.42 1608.25 153.351C1608.36 155.758 1608.41 158.167 1608.43 160.576C1608.44 161.297 1608.44 162.018 1608.45 162.76C1608.47 165.144 1608.48 167.527 1608.49 169.91C1608.5 170.728 1608.5 171.547 1608.5 172.39C1608.53 176.73 1608.54 181.07 1608.55 185.41C1608.56 189.861 1608.59 194.312 1608.63 198.763C1608.66 202.211 1608.67 205.66 1608.67 209.108C1608.68 210.747 1608.69 212.385 1608.71 214.024C1608.89 230.627 1605.59 244.452 1594.07 257.101C1583.68 266.786 1571.3 270.821 1557.38 270.755C1556.34 270.762 1555.3 270.769 1554.24 270.776C1550.84 270.794 1547.44 270.791 1544.04 270.785C1541.66 270.789 1539.28 270.795 1536.9 270.801C1531.92 270.81 1526.94 270.807 1521.96 270.797C1515.6 270.786 1509.24 270.806 1502.88 270.835C1497.97 270.854 1493.06 270.853 1488.14 270.848C1485.8 270.847 1483.46 270.853 1481.11 270.866C1477.83 270.881 1474.54 270.87 1471.26 270.853C1469.83 270.867 1469.83 270.867 1468.37 270.882C1455.58 270.744 1444.04 264.939 1434.63 256.476C1426.24 247.746 1421.12 235.848 1421.08 223.836C1421.07 223.084 1421.06 222.332 1421.06 221.557C1421.04 219.072 1421.03 216.587 1421.02 214.101C1421.01 213.248 1421.01 212.395 1421 211.517C1420.98 206.997 1420.97 202.476 1420.96 197.956C1420.95 193.314 1420.91 188.673 1420.87 184.031C1420.85 180.439 1420.84 176.848 1420.84 173.256C1420.83 171.547 1420.82 169.838 1420.8 168.128C1420.64 152.202 1423.42 139.057 1434.51 126.875C1445.39 116.431 1457.67 112.046 1472.5 112.061ZM1457.29 152.698C1453.88 158.834 1454.58 165.984 1454.66 172.797C1454.66 174.295 1454.66 175.794 1454.66 177.293C1454.66 180.422 1454.68 183.549 1454.71 186.678C1454.75 190.677 1454.76 194.675 1454.75 198.675C1454.75 201.765 1454.76 204.855 1454.77 207.945C1454.78 209.419 1454.78 210.894 1454.78 212.368C1454.79 214.431 1454.81 216.492 1454.83 218.555C1454.84 219.725 1454.85 220.896 1454.86 222.102C1455.49 227.29 1457.56 231.252 1461.57 234.601C1462.12 235.081 1462.67 235.56 1463.24 236.054C1468.4 239.38 1473.71 239.645 1479.69 239.626C1480.51 239.631 1481.34 239.636 1482.19 239.641C1484.9 239.655 1487.62 239.654 1490.34 239.652C1492.23 239.656 1494.13 239.66 1496.03 239.665C1500.01 239.673 1503.98 239.672 1507.96 239.667C1513.03 239.661 1518.11 239.678 1523.19 239.701C1527.11 239.716 1531.03 239.717 1534.95 239.714C1536.82 239.714 1538.69 239.72 1540.56 239.73C1543.18 239.742 1545.81 239.735 1548.43 239.724C1549.58 239.735 1549.58 239.735 1550.74 239.747C1556.97 239.687 1563.36 238.6 1568.38 234.703C1568.81 234.133 1569.24 233.563 1569.69 232.976C1570.14 232.412 1570.6 231.847 1571.06 231.265C1573.83 226.82 1574.51 223.06 1574.54 217.852C1574.56 216.557 1574.57 215.262 1574.58 213.927C1574.59 212.52 1574.59 211.114 1574.59 209.707C1574.6 208.253 1574.6 206.8 1574.61 205.346C1574.62 202.303 1574.63 199.259 1574.62 196.215C1574.62 192.332 1574.65 188.449 1574.69 184.565C1574.71 181.563 1574.71 178.562 1574.71 175.56C1574.71 174.129 1574.72 172.698 1574.74 171.267C1574.83 162.156 1574.75 155.582 1568.72 148.57C1561.07 141.872 1549.82 143.509 1540.31 143.59C1538.26 143.588 1536.21 143.585 1534.15 143.579C1529.86 143.575 1525.57 143.592 1521.28 143.624C1515.79 143.664 1510.31 143.654 1504.82 143.63C1500.59 143.616 1496.35 143.626 1492.12 143.643C1490.09 143.649 1488.07 143.648 1486.05 143.639C1483.22 143.631 1480.39 143.656 1477.56 143.688C1476.73 143.68 1475.9 143.671 1475.05 143.663C1467.52 143.812 1462.03 146.856 1457.29 152.698Z" fill="#3F3F3F"/>
<path d="M1261.16 112.174C1262.16 112.168 1263.15 112.161 1264.17 112.154C1267.46 112.135 1270.75 112.123 1274.03 112.113C1275.16 112.109 1276.29 112.105 1277.45 112.101C1283.42 112.08 1289.38 112.066 1295.35 112.056C1301.49 112.045 1307.63 112.011 1313.77 111.971C1318.51 111.945 1323.25 111.937 1327.99 111.933C1330.25 111.928 1332.51 111.917 1334.77 111.898C1353.53 111.753 1368.64 113.279 1383.07 126.664C1394.19 138.609 1397.39 153.038 1397.43 168.813C1397.44 169.842 1397.44 170.87 1397.45 171.93C1397.47 175.314 1397.48 178.698 1397.49 182.082C1397.5 183.24 1397.5 184.398 1397.5 185.591C1397.53 191.71 1397.54 197.829 1397.55 203.948C1397.56 210.273 1397.59 216.598 1397.63 222.923C1397.66 227.787 1397.67 232.65 1397.67 237.513C1397.68 239.846 1397.69 242.179 1397.71 244.512C1397.73 247.767 1397.73 251.022 1397.72 254.278C1397.74 255.727 1397.74 255.727 1397.76 257.205C1397.71 263.698 1397.71 263.698 1395.43 266.948C1390.54 270.099 1383.84 268.922 1378.25 268.351C1373.6 267.155 1370.36 265.4 1366.88 262.101C1362.89 255.347 1361.81 249.606 1361.87 241.909C1361.86 241.001 1361.86 240.093 1361.85 239.157C1361.84 237.198 1361.84 235.239 1361.84 233.281C1361.85 230.178 1361.83 227.076 1361.81 223.973C1361.77 216.273 1361.76 208.572 1361.75 200.872C1361.74 194.353 1361.71 187.833 1361.67 181.314C1361.66 178.262 1361.66 175.21 1361.67 172.158C1361.66 170.283 1361.65 168.409 1361.64 166.534C1361.64 165.69 1361.65 164.845 1361.66 163.974C1361.6 158.342 1360.69 154.028 1356.75 149.707C1351.31 145.469 1347.29 145.196 1340.59 145.174C1339.71 145.168 1338.82 145.161 1337.91 145.154C1334.98 145.135 1332.05 145.123 1329.12 145.113C1328.11 145.109 1327.11 145.105 1326.08 145.101C1320.77 145.08 1315.47 145.066 1310.16 145.056C1304.69 145.045 1299.21 145.011 1293.74 144.971C1289.53 144.945 1285.31 144.937 1281.1 144.933C1279.08 144.928 1277.06 144.916 1275.05 144.898C1272.22 144.873 1269.39 144.874 1266.56 144.881C1265.73 144.869 1264.91 144.856 1264.05 144.843C1258.39 144.893 1253.95 146.094 1249.25 149.351C1245.57 153.885 1244.13 157.627 1244.13 163.385C1244.13 164.178 1244.12 164.972 1244.12 165.789C1244.12 166.65 1244.13 167.512 1244.13 168.399C1244.13 169.314 1244.12 170.228 1244.12 171.17C1244.12 173.154 1244.12 175.139 1244.12 177.123C1244.11 181.347 1244.09 185.571 1244.07 189.794C1244.03 197.656 1244 205.517 1244 213.379C1244 218.85 1243.98 224.32 1243.94 229.791C1243.93 231.872 1243.93 233.953 1243.94 236.034C1243.95 238.952 1243.93 241.868 1243.9 244.786C1243.91 245.639 1243.92 246.492 1243.93 247.372C1243.8 254.742 1241.06 259.621 1235.82 264.726C1230.57 268.052 1225.71 268.646 1219.57 268.664C1218.26 268.681 1216.96 268.697 1215.62 268.715C1212.25 268.351 1212.25 268.351 1210.57 267.109C1208.9 264.877 1208.87 263.635 1208.87 260.864C1208.86 259.945 1208.85 259.025 1208.84 258.078C1208.84 256.568 1208.84 256.568 1208.85 255.028C1208.84 253.434 1208.84 253.434 1208.83 251.809C1208.81 248.284 1208.81 244.759 1208.82 241.234C1208.82 238.781 1208.81 236.328 1208.8 233.875C1208.8 228.721 1208.8 223.568 1208.81 218.415C1208.82 211.837 1208.8 205.259 1208.77 198.681C1208.75 193.608 1208.75 188.534 1208.76 183.46C1208.76 181.037 1208.75 178.614 1208.74 176.191C1208.65 156.794 1209.92 140.009 1224.25 125.351C1235.4 116.162 1246.93 112.215 1261.16 112.174Z" fill="#3F3F3F"/>
<path d="M916.755 112.077C917.552 112.072 918.348 112.066 919.168 112.061C921.767 112.047 924.366 112.048 926.965 112.051C928.783 112.047 930.602 112.042 932.42 112.038C936.214 112.03 940.008 112.03 943.802 112.036C948.668 112.041 953.534 112.024 958.399 112.001C962.147 111.987 965.894 111.986 969.641 111.989C971.436 111.988 973.231 111.983 975.026 111.973C977.527 111.961 980.028 111.967 982.529 111.979C983.271 111.971 984.012 111.964 984.777 111.956C989.758 112.007 989.758 112.007 992.212 113.71C994.676 117.591 993.666 122.962 993.254 127.351C991.977 133.013 989.575 138.227 984.566 141.431C978.014 144.738 971.946 144.887 964.694 144.807C962.612 144.784 960.53 144.788 958.448 144.799C953.28 144.821 948.114 144.803 942.947 144.778C938.565 144.756 934.184 144.754 929.802 144.78C927.763 144.785 925.726 144.76 923.687 144.735C916.301 144.775 910.704 145.04 905.254 150.351C901.357 155.961 900.682 161.171 900.771 167.853C900.768 168.768 900.764 169.683 900.76 170.626C900.754 172.599 900.757 174.573 900.768 176.546C900.785 179.675 900.778 182.802 900.764 185.931C900.738 192.571 900.744 199.211 900.754 205.851C900.765 213.55 900.764 221.248 900.73 228.946C900.723 232.02 900.739 235.093 900.757 238.166C900.751 240.06 900.744 241.955 900.736 243.849C900.748 244.696 900.759 245.543 900.771 246.416C900.706 252.753 899.229 258.129 894.842 262.88C889.061 267.982 883.946 268.676 876.566 268.601C875.795 268.609 875.023 268.617 874.228 268.625C868.507 268.605 868.507 268.605 866.254 266.351C865.997 264.377 865.997 264.377 865.986 261.908C865.978 260.974 865.969 260.039 865.961 259.076C865.962 258.047 865.962 257.018 865.963 255.957C865.957 254.876 865.95 253.794 865.943 252.68C865.924 249.085 865.92 245.49 865.918 241.894C865.912 239.395 865.905 236.895 865.898 234.396C865.886 229.142 865.882 223.889 865.883 218.636C865.884 213.257 865.87 207.879 865.842 202.501C865.809 196.002 865.795 189.503 865.796 183.003C865.794 180.533 865.785 178.062 865.77 175.592C865.664 156.929 866.274 141.396 879.508 126.879C890.058 116.734 902.274 112.027 916.755 112.077Z" fill="#3F3F3F"/>
<path d="M279.305 137.238C280.654 137.238 282.003 137.244 283.352 137.254C285.297 137.257 285.297 137.257 287.282 137.261C289.774 137.275 289.774 137.275 292.317 137.289C297.576 137.309 302.835 137.33 308.254 137.351C308.254 157.481 308.254 177.611 308.254 198.351C297.364 198.351 286.474 198.351 275.254 198.351C275.233 190.553 275.213 182.754 275.202 174.955C275.197 171.324 275.19 167.693 275.179 164.062C275.168 160.567 275.162 157.072 275.159 153.577C275.156 151.589 275.149 149.601 275.141 147.613C275.141 146.411 275.141 145.21 275.141 143.973C275.138 142.909 275.136 141.845 275.134 140.749C275.315 137.144 275.626 137.375 279.305 137.238Z" fill="#5DC9F4"/>
<path d="M274.254 96.3513C290.1 96.3513 290.1 96.3513 295.754 97.6638C296.857 97.9075 297.961 98.1511 299.098 98.4021C302.254 99.3513 302.254 99.3513 308.254 102.351C308.254 113.901 308.254 125.451 308.254 137.351C292.414 137.846 292.414 137.846 276.254 138.351C275.924 158.151 275.594 177.951 275.254 198.351C286.144 198.351 297.034 198.351 308.254 198.351C308.254 200.991 308.254 203.631 308.254 206.351C297.034 206.351 285.814 206.351 274.254 206.351C274.254 170.051 274.254 133.751 274.254 96.3513Z" fill="#00ADED"/>
<path d="M275.254 131.351C286.144 131.351 297.034 131.351 308.254 131.351C308.254 133.331 308.254 135.311 308.254 137.351C292.414 137.846 292.414 137.846 276.254 138.351C275.924 158.151 275.594 177.951 275.254 198.351C286.144 198.351 297.034 198.351 308.254 198.351C308.254 200.991 308.254 203.631 308.254 206.351C297.034 206.351 285.814 206.351 274.254 206.351C274.214 188.503 274.214 188.503 274.205 180.904C274.199 175.716 274.192 170.528 274.179 165.339C274.168 161.157 274.162 156.975 274.159 152.793C274.157 151.196 274.154 149.599 274.148 148.003C274.141 145.769 274.14 143.535 274.141 141.301C274.138 140.029 274.136 138.756 274.134 137.445C274.254 134.351 274.254 134.351 275.254 131.351Z" fill="#2DBAF0"/>
<path d="M274.254 201.351C274.584 202.011 274.914 202.671 275.254 203.351C286.144 203.351 297.034 203.351 308.254 203.351C308.254 204.341 308.254 205.331 308.254 206.351C297.034 206.351 285.814 206.351 274.254 206.351C274.254 204.701 274.254 203.051 274.254 201.351Z" fill="#15B3EF"/>
<path d="M275.254 131.351C286.144 131.351 297.034 131.351 308.254 131.351C308.254 132.341 308.254 133.331 308.254 134.351C297.364 134.351 286.474 134.351 275.254 134.351C275.254 133.361 275.254 132.371 275.254 131.351Z" fill="#15B3EF"/>
<path d="M374.254 145.351C374.584 145.351 374.914 145.351 375.254 145.351C375.254 152.611 375.254 159.871 375.254 167.351C374.924 167.351 374.594 167.351 374.254 167.351C373.264 162.401 372.274 157.451 371.254 152.351C371.914 152.021 372.574 151.691 373.254 151.351C373.912 148.322 373.912 148.322 374.254 145.351Z" fill="#0EB0EE"/>
<path d="M169.254 269.351C172.554 269.351 175.854 269.351 179.254 269.351C175.916 271.02 172.792 272.225 169.254 273.351C169.254 272.031 169.254 270.711 169.254 269.351Z" fill="#00739F"/>
</svg>
